<?xml version="1.0" standalone="no"?>
<!DOCTYPE svg PUBLIC "-//W3C//DTD SVG 20010904//EN"
 "http://www.w3.org/TR/2001/REC-SVG-20010904/DTD/svg10.dtd">
<svg version="1.0" xmlns="http://www.w3.org/2000/svg"
 width="1250.000000pt" height="1250.000000pt" viewBox="0 0 1250.000000 1250.000000"
 preserveAspectRatio="xMidYMid meet">
<metadata>
Created by potrace 1.14, written by Peter Selinger 2001-2017
</metadata>
<g transform="translate(0.000000,1250.000000) scale(0.100000,-0.100000)"
fill="#000000" stroke="none">
<path d="M6169 11860 c-59 -70 -97 -108 -148 -149 -42 -33 -54 -53 -86 -143
-20 -57 -68 -120 -118 -154 -56 -37 -187 -45 -294 -16 -108 28 -282 52 -380
52 -45 0 -115 7 -155 16 -196 42 -204 40 -274 -43 -64 -76 -67 -85 -66 -216 1
-149 -17 -239 -55 -279 -31 -33 -136 -69 -198 -68 -22 0 -54 -2 -71 -6 -43 -8
-76 12 -154 91 -76 77 -71 73 -133 125 -44 36 -53 40 -104 40 -55 0 -57 -1
-107 -54 -46 -48 -92 -82 -193 -142 -83 -49 -179 -121 -227 -170 -80 -82 -183
-299 -218 -459 -6 -27 -20 -63 -32 -80 -51 -74 -122 -154 -203 -230 -48 -45
-115 -120 -148 -165 -33 -45 -72 -96 -86 -113 -72 -87 -92 -177 -94 -422 -1
-235 -10 -267 -96 -362 -57 -63 -111 -159 -140 -248 -14 -46 -64 -184 -113
-318 -19 -50 -39 -112 -45 -137 -19 -75 -82 -261 -108 -320 -55 -124 -155
-228 -268 -280 -46 -21 -137 -86 -251 -178 -44 -35 -99 -76 -124 -90 -109 -63
-300 -232 -331 -294 -11 -22 -34 -47 -52 -56 -42 -22 -172 -157 -197 -204 -11
-21 -27 -63 -35 -94 -8 -32 -21 -64 -28 -73 -29 -33 -69 -184 -128 -476 -39
-198 -41 -218 -36 -390 7 -208 24 -312 83 -503 25 -81 54 -178 66 -217 24 -83
82 -199 153 -310 29 -44 66 -104 84 -134 42 -71 189 -234 266 -294 33 -27 93
-65 132 -85 77 -39 186 -121 307 -231 40 -36 107 -83 147 -105 41 -21 99 -53
129 -72 65 -39 106 -50 216 -59 90 -8 92 -6 105 55 8 34 8 34 3 -5 -17 -147
11 -591 45 -725 54 -208 136 -445 186 -538 22 -40 82 -137 133 -215 50 -78 92
-145 92 -150 0 -15 101 -209 125 -242 13 -16 40 -66 61 -110 30 -65 56 -99
133 -179 120 -123 179 -167 289 -216 98 -44 172 -100 237 -180 24 -30 67 -82
95 -115 27 -33 65 -89 84 -125 86 -164 133 -197 278 -202 81 -3 102 -7 127
-26 17 -12 35 -22 41 -22 16 0 122 -60 150 -86 86 -77 274 -116 380 -79 53 19
91 51 144 123 58 77 177 183 229 204 23 9 85 21 138 28 89 11 101 10 170 -10
41 -12 111 -37 157 -56 71 -29 94 -34 165 -34 l83 0 80 83 c79 81 127 149 197
278 20 36 57 94 83 130 27 35 61 90 77 121 20 41 53 80 111 133 166 151 294
235 361 235 40 0 69 -21 99 -73 41 -70 95 -237 96 -295 0 -31 66 -127 123
-180 40 -36 53 -42 91 -42 24 0 61 7 82 16 22 10 69 17 109 18 60 1 77 -3 117
-27 26 -15 56 -41 68 -57 23 -32 133 -111 209 -149 23 -12 95 -57 160 -98 136
-89 228 -136 400 -205 l126 -50 120 7 c88 5 136 12 180 29 33 13 80 30 105 39
25 10 97 51 160 93 185 122 238 143 400 164 95 12 160 32 183 58 8 9 27 48 42
87 52 138 90 178 253 259 30 15 73 44 95 65 23 21 69 56 102 79 40 28 72 60
93 95 18 29 48 69 68 88 20 19 50 54 67 79 17 25 55 74 84 109 28 35 61 82 72
105 133 283 149 327 186 512 24 127 25 138 27 639 2 456 0 519 -16 595 -23
110 -44 185 -66 235 -69 153 -92 198 -128 251 -47 68 -170 197 -226 234 -20
14 -36 31 -36 39 0 12 31 -9 70 -49 3 -3 24 -20 47 -38 34 -27 43 -30 50 -18
4 8 29 23 54 34 25 11 61 33 80 49 19 16 55 44 80 61 51 34 114 102 161 172
17 25 68 83 113 130 86 89 170 201 188 253 13 39 83 173 110 212 44 63 102
127 171 186 39 34 121 109 181 168 89 85 122 125 168 203 32 54 60 106 63 115
4 10 27 63 52 117 l45 99 -2 106 c-5 299 -61 555 -167 775 -47 98 -55 151 -54
380 0 211 0 213 -25 247 -74 102 -75 105 -91 199 -28 175 -148 350 -301 438
-64 37 -93 79 -93 135 0 56 -21 97 -55 111 -20 9 -46 32 -62 57 -15 24 -84
100 -152 169 -68 69 -131 137 -140 151 -59 96 -108 129 -190 129 -27 0 -43 10
-83 50 -50 51 -104 83 -195 118 -61 23 -147 86 -199 145 -35 40 -41 53 -56
143 -20 114 -62 251 -86 278 -9 10 -80 73 -156 139 -116 100 -148 123 -190
134 -28 7 -59 13 -70 13 -34 0 -209 96 -364 199 -35 24 -93 53 -129 66 -84 31
-98 44 -119 117 -17 55 -25 65 -94 121 -119 96 -134 100 -355 108 -106 4 -221
14 -260 22 -123 27 -199 48 -236 63 -34 15 -39 15 -64 -2 -17 -11 -47 -17 -88
-18 -86 -1 -158 36 -263 134 -85 80 -105 90 -193 90 -25 0 -77 7 -115 15 -162
34 -439 262 -553 456 -9 15 -27 32 -40 38 -13 6 -47 48 -77 93 -105 163 -204
244 -309 255 l-53 5 -45 -52z m1671 -1200 c0 -5 -5 -10 -11 -10 -5 0 -7 5 -4
10 3 6 8 10 11 10 2 0 4 -4 4 -10z m1833 -946 c3 -4 2 -15 -4 -26 -14 -26 -3
-35 21 -20 11 7 20 8 20 3 0 -18 -26 -29 -57 -24 -37 6 -43 26 -16 55 17 19
26 22 36 12z m-3072 -27 c-1 -12 -15 -9 -19 4 -3 6 1 10 8 8 6 -3 11 -8 11
-12z m-1731 -111 c0 -12 -13 -36 -19 -36 -4 0 -7 9 -8 20 -1 11 4 20 13 20 8
0 14 -2 14 -4z m710 -61 c0 -8 -4 -15 -10 -15 -5 0 -10 7 -10 15 0 8 5 15 10
15 6 0 10 -7 10 -15z m405 -54 c7 -12 -12 -24 -25 -16 -11 7 -4 25 10 25 5 0
11 -4 15 -9z m85 -522 c0 -6 -4 -7 -10 -4 -5 3 -10 11 -10 16 0 6 5 7 10 4 6
-3 10 -11 10 -16z m1158 -114 c-3 -3 -9 2 -12 12 -6 14 -5 15 5 6 7 -7 10 -15
7 -18z m-608 -195 c0 -5 -4 -10 -10 -10 -5 0 -10 5 -10 10 0 6 5 10 10 10 6 0
10 -4 10 -10z m-249 -807 c-12 -20 -14 -14 -5 12 4 9 9 14 11 11 3 -2 0 -13
-6 -23z m-14 -70 c-3 -10 -5 -4 -5 12 0 17 2 24 5 18 2 -7 2 -21 0 -30z
m-2756 -10 c13 -15 12 -15 -11 -3 -34 17 -36 20 -18 20 9 0 22 -7 29 -17z
m2746 -120 c-3 -10 -5 -4 -5 12 0 17 2 24 5 18 2 -7 2 -21 0 -30z m-2382 -65
c14 -6 25 -15 25 -20 0 -8 -17 -1 -50 22 -20 13 -7 13 25 -2z m2392 -10 c-3
-8 -6 -5 -6 6 -1 11 2 17 5 13 3 -3 4 -12 1 -19z m-2292 -38 c3 -5 21 -10 38
-11 30 -1 30 -1 7 -8 -25 -7 -70 7 -70 22 0 10 18 9 25 -3z m172 -26 c-3 -3
-12 -4 -19 -1 -8 3 -5 6 6 6 11 1 17 -2 13 -5z m-47 -8 c0 -11 -19 -15 -25 -6
-3 5 1 10 9 10 9 0 16 -2 16 -4z m120 -16 c8 -5 11 -12 8 -16 -4 -3 -14 1 -23
10 -18 17 -9 21 15 6z m2079 -50 c1 -13 0 -13 -9 0 -5 8 -9 24 -9 35 l0 20 9
-20 c5 -11 9 -27 9 -35z m-1955 -36 c15 -14 26 -27 23 -30 -3 -3 -14 3 -25 13
-10 10 -27 23 -38 30 -14 9 -15 12 -4 12 8 0 28 -11 44 -25z m121 -111 c23
-20 39 -53 26 -53 -4 0 -13 11 -19 25 -7 14 -23 30 -37 37 -14 6 -25 15 -25
20 0 10 26 -4 55 -29z m81 -111 c-8 -7 -25 8 -37 31 -11 21 -10 21 15 -2 14
-14 24 -26 22 -29z m48 -63 c10 -17 14 -29 8 -26 -5 4 -20 24 -32 44 -12 20
-16 32 -8 26 7 -6 22 -26 32 -44z m1764 26 c-3 -3 -9 2 -12 12 -6 14 -5 15 5
6 7 -7 10 -15 7 -18z m-1734 -81 c3 -8 2 -12 -4 -9 -6 3 -10 10 -10 16 0 14 7
11 14 -7z m48 -129 c9 -20 9 -20 -6 -1 -9 11 -16 27 -15 35 0 14 1 14 6 1 3
-8 10 -24 15 -35z m1876 -81 c64 -78 68 -84 53 -84 -9 0 -103 114 -134 162
-22 35 -21 50 1 20 9 -13 45 -57 80 -98z m-1846 -36 c2 -49 -10 -78 -53 -129
-43 -51 -46 -69 -24 -114 l15 -30 -20 24 c-31 36 -25 74 19 125 42 48 59 109
47 163 -5 22 -4 24 4 11 6 -10 11 -32 12 -50z m1853 -118 c-3 -5 -11 -10 -16
-10 -6 0 -7 5 -4 10 3 6 11 10 16 10 6 0 7 -4 4 -10z m-45 -100 c-6 -11 -8
-25 -5 -30 3 -5 2 -26 -4 -45 -5 -20 -6 -35 -1 -35 5 0 6 -8 3 -17 -4 -11 -8
-12 -11 -5 -2 7 -8 12 -14 12 -5 0 -7 -9 -3 -19 4 -13 -1 -27 -14 -40 -20 -20
-20 -20 0 -44 10 -14 19 -29 19 -33 0 -4 -6 0 -13 10 -8 11 -19 15 -30 10 -22
-8 -22 -20 1 -34 15 -10 15 -11 0 -6 -35 10 -63 -70 -34 -99 22 -23 21 -67 -1
-63 -16 3 -18 -5 -15 -57 2 -42 8 -64 21 -76 15 -14 21 -39 26 -113 7 -96 15
-112 43 -84 18 18 59 -26 67 -74 7 -42 9 -43 67 -53 37 -6 38 -7 32 -40 -5
-31 -2 -36 21 -45 15 -6 31 -8 36 -4 5 3 22 -8 38 -25 16 -17 34 -31 41 -31 8
0 10 -13 6 -42 -4 -26 -2 -44 5 -49 6 -4 8 -12 4 -18 -5 -8 -11 -9 -19 -2 -10
9 -12 -5 -9 -63 2 -42 0 -77 -6 -80 -5 -4 -20 4 -32 16 -15 16 -20 18 -16 6 3
-9 0 -19 -9 -22 -8 -3 -14 -1 -14 4 0 6 -9 10 -20 10 -12 0 -25 10 -32 25 -14
30 -28 33 -28 5 0 -11 -4 -20 -10 -20 -6 0 -10 -28 -10 -65 0 -53 -4 -68 -20
-82 -11 -10 -20 -28 -20 -40 0 -13 -3 -22 -7 -20 -10 3 -53 -40 -53 -53 0 -5
-6 -10 -13 -10 -7 0 -21 -11 -31 -25 -12 -16 -23 -22 -30 -17 -18 15 -48 23
-41 12 3 -6 2 -10 -4 -10 -6 0 -15 9 -21 20 -11 20 -50 28 -50 10 0 -5 -7 -7
-15 -4 -11 4 -13 2 -9 -9 3 -8 1 -18 -4 -21 -6 -3 -12 1 -16 9 -3 8 -10 15
-16 15 -6 0 -8 -4 -5 -10 3 -5 -1 -10 -9 -10 -9 0 -16 6 -16 13 0 9 -3 8 -9
-2 -6 -9 -11 -10 -15 -2 -4 6 -12 9 -17 6 -5 -4 -9 1 -9 9 0 9 -9 17 -20 17
-11 1 -26 2 -32 3 -7 1 -13 10 -14 21 -2 39 -4 45 -15 45 -8 0 -8 -5 1 -15 7
-8 8 -15 2 -15 -5 0 -15 7 -22 15 -7 8 -16 12 -21 9 -13 -8 -11 10 4 25 10 11
9 12 -3 6 -15 -8 25 42 45 57 6 4 7 8 3 8 -5 0 10 19 32 41 22 23 40 45 40 50
0 5 9 9 19 9 11 0 23 5 26 11 4 6 13 8 21 5 8 -3 14 1 14 9 0 9 18 16 58 20
31 4 64 9 72 12 8 3 24 5 36 4 15 -1 25 7 35 30 18 44 19 69 2 69 -7 0 -13 7
-13 15 0 17 -2 18 -24 9 -9 -3 -14 -9 -12 -13 3 -4 -4 -8 -15 -8 -12 -1 -17 3
-13 9 4 6 -12 -8 -36 -32 -24 -24 -45 -39 -47 -34 -4 13 -73 5 -73 -8 0 -5 -5
-6 -11 -2 -8 4 -7 9 2 15 11 6 10 9 -4 15 -9 3 -14 10 -11 15 3 5 -1 9 -9 9
-19 0 -27 21 -27 68 0 19 -8 44 -17 54 -20 22 -10 46 27 65 12 6 27 17 31 25
7 11 11 10 19 -2 8 -12 10 -9 10 12 0 27 16 46 28 33 4 -4 1 -10 -5 -12 -7 -3
-13 -9 -13 -15 0 -13 41 0 60 19 13 13 13 14 -7 9 -12 -4 -24 -2 -28 4 -4 7
-18 9 -32 5 -24 -6 -25 -4 -20 24 4 21 3 31 -5 31 -9 0 -9 3 0 12 14 14 16 32
3 23 -5 -3 -12 -1 -16 5 -3 5 -1 10 4 10 6 0 11 5 11 11 0 8 -14 10 -42 6 -23
-3 -37 -3 -31 1 7 5 8 26 1 69 -9 62 -9 63 19 87 18 16 32 21 39 15 8 -6 13
-3 17 11 5 20 27 28 27 10 0 -6 11 -8 26 -4 19 5 25 4 20 -5 -9 -14 18 -15 45
-1 29 16 23 38 -13 46 -18 4 -37 7 -41 6 -4 -1 -18 4 -30 13 -12 8 -29 15 -39
15 -10 0 -18 4 -18 8 0 5 -7 9 -15 9 -13 0 -20 -17 -16 -40 1 -5 -4 -5 -10 -2
-6 4 -9 16 -6 26 3 10 0 22 -5 26 -6 3 -8 1 -5 -4 7 -11 -21 -28 -30 -19 -8 8
-10 55 -2 51 4 -3 10 4 14 15 6 17 14 20 58 19 61 -2 100 8 91 23 -5 7 -2 8 5
4 7 -5 20 -1 29 7 27 23 55 30 48 12 -3 -8 -2 -15 3 -15 15 0 38 44 51 100 7
30 26 84 41 119 16 35 29 69 29 75 0 12 48 86 56 86 2 0 0 -9 -6 -20z m-1820
-86 c0 -2 -9 0 -20 6 -11 6 -20 13 -20 16 0 2 9 0 20 -6 11 -6 20 -13 20 -16z
m53 -11 c-7 -2 -19 -2 -25 0 -7 3 -2 5 12 5 14 0 19 -2 13 -5z m533 -240 c-4
-4 -11 -1 -16 7 -16 25 -11 35 7 17 9 -9 13 -20 9 -24z m844 -153 c0 -5 -8
-10 -17 -10 -15 0 -16 2 -3 10 19 12 20 12 20 0z m307 -62 c-3 -7 -5 -2 -5 12
0 14 2 19 5 13 2 -7 2 -19 0 -25z m-752 -82 c24 -2 60 -15 91 -34 28 -18 59
-32 68 -32 9 0 19 -7 23 -15 3 -9 15 -15 27 -13 15 2 21 -2 20 -15 -2 -14 1
-15 12 -6 12 10 12 13 -1 23 -13 9 -14 17 -4 44 12 36 40 42 75 17 12 -8 24
-11 28 -8 3 3 6 1 6 -5 0 -7 -9 -21 -20 -32 -11 -11 -23 -35 -27 -53 -7 -39
-25 -61 -64 -77 -16 -7 -29 -19 -29 -27 0 -8 5 -11 10 -8 12 7 40 -12 40 -26
0 -5 -8 -9 -17 -9 -15 0 -15 -2 -4 -9 12 -8 12 -12 2 -25 -11 -13 -11 -16 1
-16 20 0 55 -39 43 -48 -6 -4 -10 -16 -9 -27 0 -11 -4 -26 -9 -33 -6 -7 -10
-26 -9 -43 0 -22 -3 -29 -13 -25 -10 4 -13 -5 -10 -39 3 -36 -2 -51 -27 -86
-25 -34 -29 -48 -25 -78 5 -31 4 -34 -7 -18 -14 18 -42 24 -31 7 4 -6 -8 -29
-26 -51 -18 -23 -35 -36 -38 -30 -4 6 -29 9 -56 7 -56 -4 -82 9 -64 30 14 17
3 51 -22 65 -16 8 -18 13 -9 24 9 11 8 18 -4 30 -23 24 -15 79 13 83 22 4 30
35 11 47 -17 10 -11 51 12 80 19 24 20 31 10 59 -19 53 -15 103 8 109 28 7 25
28 -11 73 -27 34 -30 44 -25 83 3 24 2 49 -3 55 -9 10 -15 41 -12 60 0 4 9 5
19 1 9 -4 35 -8 57 -9z m212 -63 c-9 -9 -20 -13 -24 -9 -4 4 -1 11 7 16 25 16
35 11 17 -7z m1113 -142 c0 -6 -4 -13 -10 -16 -5 -3 -10 1 -10 9 0 9 5 16 10
16 6 0 10 -4 10 -9z m2780 -121 c0 -5 -5 -10 -11 -10 -5 0 -7 5 -4 10 3 6 8
10 11 10 2 0 4 -4 4 -10z m-1097 -56 c29 -10 59 -23 67 -29 8 -7 30 -20 48
-29 18 -9 42 -31 52 -49 11 -18 20 -26 20 -19 0 6 7 12 16 12 13 0 14 -3 5
-14 -10 -12 -4 -21 30 -48 23 -18 50 -52 60 -76 l19 -43 31 36 c47 54 83 68
149 62 72 -6 257 -93 321 -151 25 -22 70 -61 100 -85 50 -42 107 -101 96 -101
-3 0 -25 19 -48 41 -24 23 -67 59 -96 81 -29 21 -60 50 -69 63 -16 25 -188
114 -229 119 -11 1 -33 8 -48 14 -16 7 -40 12 -55 12 -33 -1 -82 -42 -82 -69
0 -49 -73 -79 -191 -79 -39 0 -76 -5 -82 -11 -17 -17 -77 -14 -77 3 0 21 19
30 56 28 18 -2 35 2 39 8 3 5 16 15 27 21 17 9 20 9 15 -3 -4 -12 4 -14 36
-13 81 3 88 5 81 16 -4 7 -23 8 -53 4 -56 -8 -50 3 7 13 l40 7 -15 37 c-18 46
-70 70 -75 35 -4 -29 -34 -34 -41 -7 -3 14 -13 20 -31 20 -16 0 -26 6 -26 15
0 8 3 14 8 13 4 -1 21 2 39 6 l31 7 -21 34 c-12 19 -27 34 -33 35 -6 0 -18 7
-25 16 -17 21 -54 35 -102 40 -21 2 -45 11 -54 19 -9 10 -23 13 -36 9 -12 -4
-51 -6 -87 -5 -45 1 -71 -3 -85 -13 -11 -9 -33 -16 -50 -16 -77 -1 -229 -100
-283 -185 -14 -22 -75 -90 -135 -152 -151 -154 -193 -176 -484 -243 -209 -48
-342 -37 -460 37 -29 18 -65 50 -80 70 -15 20 -58 68 -95 107 -38 39 -68 78
-68 86 1 12 3 12 14 -2 10 -13 15 -15 24 -6 9 9 12 9 12 0 0 -8 9 -10 25 -6
15 4 25 2 25 -5 0 -6 -11 -11 -25 -11 -14 0 -25 -4 -25 -9 0 -13 26 -32 33
-24 4 3 7 2 7 -3 0 -5 8 -19 18 -32 19 -25 55 -22 45 4 -8 20 -23 17 -17 -3 4
-13 0 -12 -15 6 -39 43 -1 57 44 15 15 -14 30 -23 33 -20 3 3 12 0 20 -7 13
-10 15 -9 9 8 -6 17 -5 18 5 4 7 -8 38 -31 68 -52 30 -20 61 -45 68 -56 7 -12
17 -21 23 -21 5 0 7 5 4 10 -3 6 -2 10 4 10 5 0 13 -5 16 -11 4 -5 18 -14 32
-20 13 -5 22 -13 19 -18 -3 -4 6 -6 21 -3 21 4 25 2 20 -12 -4 -10 -1 -16 8
-16 9 0 12 6 8 17 -5 13 -2 15 11 10 10 -4 28 -10 39 -12 25 -7 165 21 182 35
7 5 14 8 17 5 18 -18 231 76 255 112 9 13 19 20 25 17 12 -8 83 50 218 181
153 147 182 168 305 211 100 35 266 44 348 18z m-19 -59 c-4 -8 -1 -15 6 -15
10 0 10 -3 0 -15 -6 -8 -8 -20 -4 -27 4 -7 4 -10 -1 -6 -9 8 -28 -9 -38 -34
-3 -10 -17 -19 -29 -20 -13 0 -29 -2 -37 -2 -8 -1 -17 -8 -19 -16 -12 -38 -47
-39 -48 -1 -1 26 3 30 41 40 45 11 65 35 38 45 -22 9 0 33 38 41 16 4 31 11
34 16 10 15 25 10 19 -6z m-3281 -52 c-7 -2 -19 -2 -25 0 -7 3 -2 5 12 5 14 0
19 -2 13 -5z m3417 -24 c0 -18 -2 -19 -15 -9 -8 7 -15 16 -15 21 0 5 7 9 15 9
9 0 15 -9 15 -21z m-2463 -33 c-4 -9 1 -17 11 -19 9 -3 3 -5 -15 -6 -37 -1
-51 13 -26 28 25 15 36 13 30 -3z m-72 -16 c3 -5 1 -10 -4 -10 -6 0 -11 5 -11
10 0 6 2 10 4 10 3 0 8 -4 11 -10z m1956 -187 c-7 -27 -41 -46 -41 -24 0 6 7
11 16 11 8 0 12 5 9 10 -7 11 2 30 15 30 4 0 5 -12 1 -27z m-15 -89 c-26 -18
-46 -18 -46 1 0 8 9 15 20 15 11 0 20 5 20 12 0 9 3 9 13 -1 10 -10 8 -15 -7
-27z m-2380 11 c-3 -9 -13 -41 -22 -73 -22 -77 -55 -140 -96 -182 -19 -19 -42
-47 -51 -62 -10 -16 -22 -28 -28 -28 -6 0 -7 5 -4 10 9 14 -1 12 -36 -6 -17
-8 -28 -18 -25 -21 3 -3 12 0 21 7 9 7 18 11 20 8 9 -9 -24 -30 -50 -32 -14 0
-25 -4 -25 -7 0 -8 -135 -44 -230 -61 -41 -7 -122 -13 -180 -13 -93 1 -118 5
-225 39 -111 36 -165 62 -284 138 -25 15 -52 28 -62 28 -10 0 -64 25 -119 55
-55 30 -106 55 -113 55 -7 0 -19 6 -25 13 -9 8 -51 13 -125 14 -62 1 -142 5
-178 9 -52 5 -73 3 -102 -11 -21 -9 -38 -24 -38 -31 -1 -8 -2 -20 -3 -26 -1
-13 -22 -26 -43 -27 -7 -1 -13 10 -13 24 0 14 -3 25 -6 25 -24 0 -111 -29
-169 -56 -90 -42 -130 -49 -180 -31 -50 17 -108 11 -131 -14 -9 -10 -23 -19
-30 -19 -22 0 -27 -21 -8 -35 18 -14 18 -14 -2 -15 -12 0 -27 7 -34 15 -10 12
-10 15 0 15 8 0 11 3 7 6 -10 10 -91 -42 -138 -89 -24 -24 -59 -49 -77 -57
-25 -10 -30 -15 -21 -26 15 -18 1 -36 -22 -29 -14 5 -21 0 -28 -18 -6 -14 -15
-28 -20 -32 -6 -3 -11 -19 -11 -35 0 -15 -7 -30 -15 -34 -8 -3 -12 -12 -9 -20
5 -14 -1 -17 -58 -30 -37 -8 -35 -2 6 23 19 12 39 35 45 53 6 17 17 39 25 47
7 9 16 28 20 43 4 18 22 38 49 55 23 15 73 54 110 86 64 54 103 76 187 106 75
27 114 32 157 22 69 -18 103 -13 187 28 45 22 128 54 186 71 l105 32 180 -4
c158 -5 186 -8 230 -28 96 -43 171 -78 326 -154 85 -42 161 -76 168 -76 7 0 9
-4 6 -10 -3 -6 1 -7 9 -4 9 3 16 2 16 -4 0 -17 61 -34 76 -21 9 7 14 8 14 1 0
-5 16 -12 35 -14 32 -4 46 4 28 15 -5 2 -1 1 7 -2 20 -7 87 -6 192 3 75 7 87
10 92 28 4 18 8 19 20 9 18 -15 96 3 96 23 0 16 34 48 43 40 4 -4 9 0 13 9 3
9 12 13 20 10 8 -3 14 1 14 11 0 9 7 16 15 16 9 0 15 6 13 14 -2 7 17 33 41
57 24 24 65 72 92 107 27 36 50 58 54 52 5 -8 11 -7 21 1 11 9 21 9 40 0 23
-10 26 -9 31 9 3 11 10 20 15 20 6 0 7 -7 4 -15z m2306 -47 c-12 -12 -35 -1
-27 12 3 5 13 6 21 3 10 -4 12 -9 6 -15z m422 6 c9 -3 16 -10 16 -14 0 -16
-31 -39 -45 -34 -18 7 -20 40 -2 47 6 3 13 6 14 6 1 1 8 -2 17 -5z m-384 -48
c0 -2 -7 -6 -15 -10 -8 -3 -15 -1 -15 4 0 6 7 10 15 10 8 0 15 -2 15 -4z
m1583 -12 c18 -9 36 -23 40 -30 4 -8 35 -48 69 -90 44 -55 75 -83 117 -104 31
-16 79 -53 106 -81 l50 -52 -55 48 c-30 26 -75 57 -99 68 -48 21 -168 140
-187 187 -7 16 -29 37 -51 49 -21 11 -34 20 -30 21 4 0 22 -7 40 -16z m-1365
-35 c-3 -8 -7 -3 -11 10 -4 17 -3 21 5 13 5 -5 8 -16 6 -23z m-221 11 c21 0
42 -10 63 -30 21 -20 39 -28 51 -25 15 5 17 0 16 -32 -2 -36 0 -38 31 -41 28
-3 33 -7 30 -25 -2 -18 -11 -23 -46 -25 -37 -3 -44 0 -49 17 -3 12 -14 21 -25
21 -27 0 -70 -31 -64 -46 4 -9 -2 -14 -17 -14 -12 0 -33 -3 -47 -6 -20 -6 -23
-4 -13 7 10 10 9 16 -4 31 -17 19 -16 20 32 22 11 1 20 8 20 16 0 8 8 14 17
12 8 -1 18 6 21 17 7 27 -37 44 -80 32 -31 -9 -37 -7 -34 11 0 4 -8 10 -19 13
-27 9 -52 34 -44 47 4 6 31 7 68 4 33 -3 75 -6 93 -6z m-4022 -20 c3 -6 -1 -7
-9 -4 -18 7 -21 14 -7 14 6 0 13 -4 16 -10z m-350 -70 c10 -12 25 -18 32 -16
8 4 13 -3 13 -19 0 -22 -2 -23 -30 -13 -17 5 -37 8 -44 5 -8 -3 -27 4 -42 15
-25 20 -26 22 -8 35 26 19 58 16 79 -7z m4595 -6 c0 -2 -7 -4 -15 -4 -8 0 -15
4 -15 10 0 5 7 7 15 4 8 -4 15 -8 15 -10z m-120 -101 c0 -1 -13 -1 -30 0 -32
2 -36 7 -19 24 8 8 16 7 30 -5 10 -9 19 -18 19 -19z m-3974 -102 c-7 -11 -56
-21 -56 -11 0 13 13 20 37 20 13 0 22 -4 19 -9z m234 -13 c16 -20 22 -22 47
-12 33 12 93 7 93 -8 0 -5 -4 -7 -9 -3 -5 3 -12 1 -16 -5 -3 -5 -17 -10 -31
-10 -15 0 -23 -4 -19 -11 4 -6 23 -9 43 -7 49 4 54 -19 6 -28 -29 -5 -40 -3
-50 10 -9 13 -14 14 -20 5 -4 -7 -2 -15 4 -17 16 -5 -30 -42 -52 -42 -9 0 -33
-15 -54 -34 -30 -28 -41 -32 -56 -24 -12 7 -21 7 -29 -1 -6 -6 -21 -11 -33
-11 -13 0 -26 -5 -30 -12 -4 -7 -3 -8 4 -4 14 8 15 -3 4 -21 -9 -15 -82 -24
-82 -11 0 6 9 12 20 15 29 8 8 41 -25 41 -25 0 -63 34 -44 40 5 2 29 -4 53
-13 41 -16 47 -16 77 -1 25 13 34 14 40 4 4 -7 11 -9 15 -6 3 4 -1 14 -10 23
-19 20 -20 32 -3 38 6 2 -2 4 -20 5 -30 1 -73 27 -73 45 0 16 31 39 45 33 8
-3 18 0 22 7 5 8 9 3 13 -12 3 -14 12 -27 19 -29 8 -3 11 0 7 6 -3 6 -1 14 5
17 5 4 8 13 5 21 -4 9 2 15 17 15 12 1 29 2 39 3 9 1 20 4 24 9 14 13 36 7 54
-15z m-395 -28 c3 -5 -1 -10 -9 -10 -8 0 -18 5 -21 10 -3 6 1 10 9 10 8 0 18
-4 21 -10z m85 -32 c0 -7 -5 -6 -13 1 -8 6 -17 8 -20 4 -4 -3 -7 -2 -7 4 0 17
13 23 27 12 7 -6 13 -16 13 -21z m5948 7 c6 -13 8 -26 4 -29 -5 -3 -13 8 -19
25 -14 35 -1 39 15 4z m-6014 -101 c18 -7 22 -34 5 -34 -5 0 -7 5 -4 10 3 6 2
10 -4 10 -5 0 -13 -4 -16 -10 -11 -18 -35 -11 -35 10 0 20 22 26 54 14z m23
-80 c-9 -9 -67 -12 -62 -3 4 5 12 9 20 9 7 0 16 8 20 18 6 16 7 16 17 -1 5
-10 8 -21 5 -23z m43 26 c0 -5 -5 -10 -11 -10 -5 0 -7 5 -4 10 3 6 8 10 11 10
2 0 4 -4 4 -10z m14 -25 c-16 -25 -34 -33 -34 -16 0 7 37 38 48 40 1 1 -5 -10
-14 -24z m-1501 -53 c-26 -21 -62 -56 -78 -76 -17 -21 -40 -49 -52 -63 -13
-13 -23 -33 -23 -44 0 -10 -4 -19 -10 -19 -13 0 -13 4 4 44 8 19 20 38 28 42
7 5 28 27 47 49 37 43 110 105 124 105 5 0 -13 -17 -40 -38z m1407 20 c0 -4
-5 -13 -12 -20 -9 -9 -9 -12 0 -12 7 0 12 5 12 11 0 6 9 8 20 4 11 -4 20 -2
20 4 0 6 5 11 10 11 14 0 -17 -47 -36 -54 -8 -3 -22 -2 -32 4 -9 5 -29 11 -44
15 -43 9 -36 35 7 28 23 -4 35 -2 35 6 0 6 5 11 10 11 6 0 10 -4 10 -8z
m-1615 -247 c-16 -13 -34 -24 -39 -25 -13 0 -80 -61 -88 -79 -5 -13 -7 -14 -7
-1 -1 20 65 83 114 109 52 27 57 26 20 -4z m-145 -140 c-7 -8 -18 -15 -24 -15
-6 0 -2 7 8 15 25 19 32 19 16 0z m-43 -93 c-10 -10 -17 -28 -17 -40 0 -11 -4
-23 -9 -26 -4 -3 -6 7 -2 22 7 30 33 74 40 67 2 -3 -3 -13 -12 -23z m4849
-809 c-8 -15 -15 -22 -16 -15 0 14 22 53 28 47 2 -2 -3 -16 -12 -32z m932
-354 c-3 -8 -7 -3 -11 10 -4 17 -3 21 5 13 5 -5 8 -16 6 -23z m-34 6 c3 -8 1
-15 -4 -15 -6 0 -10 7 -10 15 0 8 2 15 4 15 2 0 6 -7 10 -15z m1726 -65 c0 -5
-5 -10 -11 -10 -5 0 -7 5 -4 10 3 6 8 10 11 10 2 0 4 -4 4 -10z m-1230 -350
c0 -5 -4 -10 -9 -10 -6 0 -13 5 -16 10 -3 6 1 10 9 10 9 0 16 -4 16 -10z"/>
<path d="M6422 6080 c0 -14 2 -19 5 -12 2 6 2 18 0 25 -3 6 -5 1 -5 -13z"/>
<path d="M6366 5974 c-9 -24 -2 -26 12 -4 7 11 8 20 3 20 -5 0 -12 -7 -15 -16z"/>
<path d="M6450 5500 c0 -5 5 -10 11 -10 5 0 7 5 4 10 -3 6 -8 10 -11 10 -2 0
-4 -4 -4 -10z"/>
<path d="M6670 5330 c0 -5 5 -10 10 -10 6 0 10 5 10 10 0 6 -4 10 -10 10 -5 0
-10 -4 -10 -10z"/>
<path d="M6058 5873 c7 -3 16 -2 19 1 4 3 -2 6 -13 5 -11 0 -14 -3 -6 -6z"/>
<path d="M5751 5224 c0 -11 3 -14 6 -6 3 7 2 16 -1 19 -3 4 -6 -2 -5 -13z"/>
<path d="M5751 5184 c0 -11 3 -14 6 -6 3 7 2 16 -1 19 -3 4 -6 -2 -5 -13z"/>
<path d="M6995 5111 c-3 -5 -1 -12 5 -16 5 -3 10 1 10 9 0 18 -6 21 -15 7z"/>
<path d="M8190 4940 c0 -5 5 -10 10 -10 6 0 10 5 10 10 0 6 -4 10 -10 10 -5 0
-10 -4 -10 -10z"/>
<path d="M8361 4844 c0 -11 3 -14 6 -6 3 7 2 16 -1 19 -3 4 -6 -2 -5 -13z"/>
<path d="M3810 4881 c0 -5 5 -13 10 -16 6 -3 10 -2 10 4 0 5 -4 13 -10 16 -5
3 -10 2 -10 -4z"/>
<path d="M1955 7770 c-3 -5 -1 -10 4 -10 6 0 11 5 11 10 0 6 -2 10 -4 10 -3 0
-8 -4 -11 -10z"/>
</g>
</svg>
