<?xml version="1.0" standalone="no"?>
<!DOCTYPE svg PUBLIC "-//W3C//DTD SVG 20010904//EN"
 "http://www.w3.org/TR/2001/REC-SVG-20010904/DTD/svg10.dtd">
<svg version="1.0" xmlns="http://www.w3.org/2000/svg"
 width="1250.000000pt" height="1250.000000pt" viewBox="0 0 1250.000000 1250.000000"
 preserveAspectRatio="xMidYMid meet">
<metadata>
Created by potrace 1.14, written by Peter Selinger 2001-2017
</metadata>
<g transform="translate(0.000000,1250.000000) scale(0.100000,-0.100000)"
fill="#000000" stroke="none">
<path d="M6182 11869 c-48 -54 -131 -136 -177 -174 -26 -22 -43 -49 -61 -100
-28 -78 -78 -148 -126 -177 -38 -24 -58 -29 -121 -32 -26 -2 -49 -5 -52 -8 -7
-6 -101 9 -135 23 -32 12 -60 17 -135 25 -33 4 -64 9 -68 11 -5 3 -61 7 -125
9 -64 2 -130 6 -147 9 -63 10 -91 16 -120 25 -16 6 -39 8 -51 6 -11 -2 -27 0
-34 4 -32 19 -121 -56 -163 -136 -13 -26 -24 -137 -17 -169 6 -26 -2 -116 -16
-175 -18 -73 -51 -110 -117 -130 -71 -21 -127 -28 -144 -17 -6 4 -14 3 -18 -3
-3 -5 -23 -10 -44 -10 -41 0 -70 19 -162 111 -126 125 -142 138 -193 144 -59
8 -93 -5 -126 -50 -21 -28 -142 -116 -185 -135 -30 -13 -188 -125 -192 -137
-3 -7 -9 -13 -14 -13 -20 0 -141 -160 -122 -160 5 0 3 -4 -2 -8 -14 -9 -62
-110 -71 -147 -4 -17 -18 -55 -31 -85 -13 -30 -24 -56 -23 -58 1 -1 -2 -17 -6
-35 -15 -71 -62 -134 -209 -283 -125 -126 -153 -157 -179 -199 -11 -16 -25
-34 -33 -38 -7 -4 -13 -13 -13 -20 0 -7 -11 -24 -25 -39 -32 -35 -67 -102 -70
-136 -2 -15 -11 -54 -20 -87 -12 -43 -15 -77 -10 -120 8 -75 9 -211 1 -247 -3
-16 -8 -40 -11 -55 -9 -44 -46 -111 -71 -128 -49 -32 -134 -187 -160 -290 -4
-16 -20 -60 -35 -97 -15 -38 -25 -68 -22 -68 3 0 1 -6 -4 -12 -15 -20 -101
-281 -122 -370 -1 -4 -9 -24 -17 -45 -16 -38 -22 -59 -31 -105 -3 -16 -8 -28
-12 -28 -3 0 -15 -20 -26 -45 -11 -25 -23 -45 -27 -45 -5 0 -8 -4 -8 -10 0 -5
-7 -18 -15 -27 -8 -10 -28 -37 -45 -61 -17 -23 -41 -47 -53 -52 -12 -5 -42
-23 -67 -39 -25 -17 -50 -31 -57 -31 -13 0 -99 -56 -118 -76 -24 -25 -196
-154 -260 -195 -81 -50 -73 -44 -150 -112 -85 -75 -155 -143 -155 -152 0 -19
-54 -77 -89 -95 -21 -10 -45 -30 -54 -43 -9 -14 -38 -48 -65 -76 -40 -41 -54
-66 -72 -124 -12 -40 -26 -79 -31 -87 -11 -18 -42 -81 -45 -95 -6 -20 -36
-140 -39 -155 -1 -8 -8 -35 -15 -60 -12 -45 -14 -56 -24 -120 -3 -19 -10 -59
-17 -88 -6 -30 -12 -61 -14 -70 -2 -9 -4 -17 -5 -17 -14 0 -19 -354 -6 -440 4
-27 9 -63 11 -80 2 -16 7 -48 10 -70 4 -22 7 -47 9 -55 1 -8 4 -19 7 -25 7
-10 29 -77 33 -98 2 -7 5 -19 8 -27 6 -19 53 -172 68 -225 20 -67 134 -283
161 -305 4 -3 18 -27 33 -55 41 -76 47 -86 96 -145 55 -68 195 -208 234 -235
16 -11 67 -40 113 -65 46 -25 100 -59 121 -76 20 -18 65 -56 100 -85 150 -129
180 -151 247 -186 38 -20 86 -46 106 -59 32 -20 91 -41 139 -50 8 -2 47 -5 85
-8 39 -2 73 -5 76 -5 9 -1 22 -42 20 -66 -4 -74 -4 -107 3 -160 4 -33 9 -109
11 -170 4 -107 15 -205 24 -217 2 -2 4 -14 7 -28 2 -14 8 -41 14 -60 41 -144
52 -180 66 -220 9 -25 25 -74 36 -110 27 -86 100 -233 166 -331 9 -14 36 -54
59 -90 24 -35 46 -68 51 -74 4 -5 20 -39 36 -75 15 -36 35 -76 44 -90 9 -14
17 -31 18 -37 1 -7 22 -43 47 -80 24 -38 59 -99 77 -138 27 -57 54 -90 140
-175 59 -58 121 -115 138 -128 32 -24 193 -102 209 -102 12 0 143 -128 200
-195 24 -28 56 -66 72 -85 16 -19 49 -70 72 -115 24 -44 51 -89 61 -99 10 -11
18 -23 18 -27 0 -5 21 -20 47 -36 41 -24 95 -35 153 -33 64 3 130 -13 130 -31
0 -4 12 -10 27 -14 15 -3 39 -15 54 -26 15 -10 32 -19 38 -19 6 0 25 -13 43
-28 51 -43 100 -69 175 -90 74 -20 185 -23 218 -5 11 6 24 11 29 11 13 -1 106
82 106 94 0 13 11 26 71 86 146 146 167 155 352 168 58 4 89 2 118 -10 21 -9
41 -16 44 -16 8 -1 38 -11 95 -33 30 -12 57 -22 60 -22 3 0 12 -5 20 -10 8 -5
56 -10 105 -11 l90 -2 68 66 c82 80 127 143 202 282 46 86 53 97 96 150 20 25
48 70 62 100 29 62 70 107 178 198 41 34 81 68 89 76 29 26 129 86 145 86 8 0
15 5 15 12 0 6 3 9 6 5 3 -3 17 -2 30 3 36 14 89 -15 118 -65 42 -71 96 -234
96 -291 0 -34 59 -126 120 -186 43 -43 98 -57 144 -39 50 20 67 23 140 27 86
4 119 -12 201 -95 33 -34 64 -61 68 -61 5 0 26 -13 46 -28 20 -15 50 -34 66
-41 29 -12 117 -66 255 -156 36 -24 90 -53 120 -66 30 -13 57 -26 60 -30 3 -3
16 -10 30 -14 14 -4 43 -16 65 -26 85 -39 172 -64 215 -63 107 3 225 15 237
26 7 6 13 7 13 2 0 -5 4 -4 8 1 4 6 34 19 67 29 54 16 122 50 135 66 15 20
252 159 280 165 3 1 25 7 50 15 25 7 56 14 70 15 14 1 25 3 25 5 0 1 16 3 35
5 126 9 190 42 211 110 7 22 15 45 18 50 3 6 6 15 7 20 3 20 63 110 86 130 21
18 115 78 128 81 29 6 84 40 117 71 22 21 70 58 105 83 45 30 74 60 92 91 14
26 48 69 74 95 27 27 57 63 67 79 11 17 37 53 60 80 75 93 73 90 167 295 48
105 88 226 104 320 8 43 14 74 21 100 4 14 8 131 9 260 3 254 10 429 18 437 3
3 2 13 -3 22 -4 9 -8 96 -8 194 -1 105 -5 182 -11 190 -6 6 -10 14 -10 17 1 3
-2 30 -6 60 -4 30 -7 58 -7 62 0 4 -6 23 -15 43 -8 19 -11 35 -8 35 4 0 1 7
-6 15 -7 8 -10 15 -7 15 8 0 -78 186 -119 256 -21 35 -53 81 -71 102 -19 20
-41 50 -49 66 -14 26 -14 29 3 45 10 9 34 24 54 33 46 21 195 132 234 175 48
51 75 84 75 90 0 11 69 92 137 161 40 40 73 75 73 78 0 3 9 14 20 26 11 12 26
34 32 50 7 15 16 28 19 28 4 0 21 35 40 78 18 42 37 79 41 80 4 2 8 9 8 16 0
19 88 147 136 198 22 24 65 63 94 88 47 40 146 132 248 232 35 35 138 200 161
258 8 19 30 69 50 110 36 75 36 75 35 205 -1 190 -11 309 -31 370 -9 26 -11
34 -18 70 -3 17 -8 37 -11 45 -3 8 -8 26 -10 40 -5 24 -35 114 -53 155 -5 11
-23 50 -40 87 -49 108 -59 179 -54 382 4 200 -2 231 -53 288 -43 48 -50 64
-58 123 -3 28 -9 66 -12 85 -9 59 -84 194 -138 254 -29 31 -50 56 -48 56 9 0
-79 61 -121 84 -49 27 -74 70 -82 141 -7 61 -23 95 -45 95 -24 0 -52 27 -88
83 -17 27 -80 97 -140 155 -60 59 -117 121 -128 137 -10 17 -24 34 -31 38 -7
4 -13 12 -13 17 0 27 -77 77 -109 71 -39 -7 -81 12 -127 60 -51 52 -84 72
-194 116 -36 14 -67 29 -70 32 -3 4 -25 22 -50 40 -83 63 -115 105 -124 161
-11 75 -28 149 -54 230 -27 89 -52 122 -160 210 -23 19 -62 52 -85 73 -90 83
-103 89 -207 102 -31 4 -134 54 -207 101 -29 19 -55 34 -58 34 -2 0 -43 27
-92 59 -48 33 -99 62 -113 65 -63 11 -134 57 -135 86 0 3 -3 10 -6 15 -4 6
-10 24 -13 42 -7 31 -57 93 -75 93 -5 0 -11 4 -13 8 -1 5 -25 25 -53 44 -45
32 -65 42 -115 56 -8 2 -80 5 -160 7 -123 2 -212 9 -255 21 -17 5 -59 14 -87
19 -15 3 -38 9 -52 15 -15 5 -26 8 -26 5 0 -2 -31 7 -70 20 -65 22 -72 23
-101 8 -17 -8 -55 -17 -86 -18 -46 -3 -65 2 -124 32 -41 22 -96 62 -134 100
-80 78 -107 90 -210 94 -86 3 -156 22 -220 61 -95 57 -115 70 -115 79 0 5 -5
9 -11 9 -12 0 -109 82 -162 136 -35 36 -120 146 -147 190 -12 18 -30 36 -41
39 -12 4 -46 46 -76 93 -91 143 -211 237 -313 249 -37 5 -43 2 -78 -38z"/>
</g>
</svg>
